<svg width="176" height="176" viewBox="0 0 176 176" fill="none" xmlns="http://www.w3.org/2000/svg">
<g filter="url(#filter0_d)">
<path d="M49.6254 8.92551C52.0971 5.14274 56.57 3.1772 61.0282 3.91475L80.0964 7.06941C81.8202 7.3546 83.5865 7.23968 85.2588 6.73355L103.758 1.1349C108.083 -0.174059 112.772 1.19538 115.713 4.626L128.293 19.2994C129.43 20.6259 130.857 21.6733 132.463 22.3605L150.233 29.9624C154.387 31.7397 157.1 35.8034 157.148 40.3219L157.352 59.6482C157.371 61.3953 157.79 63.1148 158.579 64.6739L167.305 81.9194C169.345 85.9514 168.811 90.8078 165.943 94.2999L153.677 109.236C152.568 110.586 151.785 112.173 151.387 113.875L146.986 132.695C145.957 137.095 142.426 140.471 137.985 141.303L118.987 144.86C117.27 145.182 115.649 145.894 114.251 146.942L98.7828 158.53C95.1664 161.239 90.291 161.556 86.3539 159.338L69.5147 149.852C67.9923 148.995 66.2933 148.498 64.5487 148.402L45.2507 147.336C40.7389 147.087 36.8002 144.196 35.2099 139.966L28.4078 121.875C27.7928 120.24 26.8102 118.768 25.5357 117.573L11.4377 104.352C8.14166 101.26 6.98269 96.5142 8.48318 92.2519L14.9011 74.0212C15.4813 72.3731 15.6748 70.6137 15.4668 68.8788L13.1654 49.689C12.6274 45.2024 14.7904 40.8216 18.6796 38.5209L35.3145 28.6807C36.8183 27.7911 38.0975 26.5678 39.0533 25.1051L49.6254 8.92551Z" fill="url(#paint0_linear)"/>
</g>
<defs>
<filter id="filter0_d" x="0.835999" y="0.645752" width="174.697" height="175.16" filterUnits="userSpaceOnUse" color-interpolation-filters="sRGB">
<feFlood flood-opacity="0" result="BackgroundImageFix"/>
<feColorMatrix in="SourceAlpha" type="matrix" values="0 0 0 0 0 0 0 0 0 0 0 0 0 0 0 0 0 0 127 0"/>
<feOffset dy="8"/>
<feGaussianBlur stdDeviation="3.5"/>
<feColorMatrix type="matrix" values="0 0 0 0 0 0 0 0 0 0 0 0 0 0 0 0 0 0 0.05 0"/>
<feBlend mode="normal" in2="BackgroundImageFix" result="effect1_dropShadow"/>
<feBlend mode="normal" in="SourceGraphic" in2="effect1_dropShadow" result="shape"/>
</filter>
<linearGradient id="paint0_linear" x1="-6.92579" y1="120.969" x2="176.129" y2="53.9523" gradientUnits="userSpaceOnUse">
<stop stop-color="#FF002E"/>
<stop offset="1" stop-color="#FF4D00"/>
</linearGradient>
</defs>
</svg>
